# xmcd
#
# Track frame offsets:
#	150
#	13717
#	26062
#	42220
#	56901
#	76035
#	90186
#	103282
#	112944
#
# Disc length: 1722 seconds
#
# Revision: 1
# Processed by: cddbd v1.5.2PL0 Copyright (c) Steve Scherf et al.
# Submitted via: audiograbber 1.83.01
#
DISCID=6306b809
DTITLE=Cool Drivers - That's Al Right Mama
DYEAR=2007
DGENRE=Blues
TTITLE0=Blow wind blow
TTITLE1=Going to New-York
TTITLE2=Get down to the nitty gritty
TTITLE3=That's all right Mama
TTITLE4=Easy baby
TTITLE5=She's dynamite
TTITLE6=I found true love
TTITLE7=Bad case of love
TTITLE8=When it rains it pours
EXTD=Frederic Le Baron - chant, guitare\nArnaud Gobin - guitare, choeurs\nPhili
EXTD=ppe Evrard - Harmonica, choeurs\nJerome Boisneau - batterie\nYann Renoul :
EXTD=basse
EXTT0=
EXTT1=
EXTT2=
EXTT3=
EXTT4=
EXTT5=
EXTT6=
EXTT7=
EXTT8=
PLAYORDER=
